<?xml version="1.0" encoding="UTF-8"?>
<svg version="1.1" xmlns="http://www.w3.org/2000/svg" width="1200" height="404">
<path d="M0 0 C237.48183486 0 237.48183486 0 278 36 C279.35158203 37.20076172 279.35158203 37.20076172 280.73046875 38.42578125 C299.88676571 56.57228891 311.01681471 81.9649284 314 108 C314.10957031 108.825 314.21914063 109.65 314.33203125 110.5 C317.26974073 136.19516558 314.32452812 163.56994182 303 187 C302.51015625 188.03125 302.0203125 189.0625 301.515625 190.125 C287.47368015 217.94142407 262.29384844 236.39381553 233.2578125 246.3359375 C201.33384652 256.71031641 169.50726651 257.43108781 136.3125 257.1875 C124.329375 257.125625 112.34625 257.06375 100 257 C100 294.29 100 331.58 100 370 C67 370 34 370 0 370 C0 247.9 0 125.8 0 0 Z M100 76 C100 110.65 100 145.3 100 181 C113.3340625 181.061875 113.3340625 181.061875 126.9375 181.125 C131.09073853 181.15231201 131.09073853 181.15231201 135.32788086 181.18017578 C170.81998095 181.42723752 170.81998095 181.42723752 201.21875 164.86328125 C211.17453214 154.44900914 213.38598667 139.22124327 213.2109375 125.33984375 C212.38644621 112.28539834 209.03796313 98.56245163 198.9609375 89.51953125 C183.18255706 77.29285796 163.94209934 75.63962303 144.62890625 75.8046875 C142.91181458 75.80770874 142.91181458 75.80770874 141.16003418 75.81079102 C136.96081424 75.82110611 132.76165227 75.8490261 128.5625 75.875 C119.136875 75.91625 109.71125 75.9575 100 76 Z " fill="#8CCD0E" transform="translate(183,13)"/>
<path d="M0 0 C23.67359221 22.89814226 30.10386673 56.83321293 30.7504738 88.57156754 C30.86604162 95.84829609 30.86870797 103.12565354 30.86554074 110.40311432 C30.86751988 114.4116939 30.88799323 118.42018076 30.90672302 122.42871094 C30.94725996 131.71974088 30.96618766 141.01075129 30.9828949 150.30184937 C31.00540772 162.12647965 31.03943287 173.95105507 31.09009403 185.77559853 C31.10650249 189.73760244 31.11868672 193.69952042 31.12033272 197.66156006 C31.13002817 220.45793731 31.38149643 243.15450275 36.05029297 265.56201172 C36.50474597 267.81512842 36.95542874 270.06900974 37.40185547 272.32373047 C37.59859863 273.27594482 37.7953418 274.22815918 37.99804688 275.20922852 C38.42529297 277.87451172 38.42529297 277.87451172 38.42529297 282.87451172 C9.05529297 282.87451172 -20.31470703 282.87451172 -50.57470703 282.87451172 C-51.99690892 279.31900699 -53.03146194 276.34472228 -53.86376953 272.67919922 C-54.19248047 271.23480469 -54.19248047 271.23480469 -54.52783203 269.76123047 C-54.74955078 268.76736328 -54.97126953 267.77349609 -55.19970703 266.74951172 C-55.42916016 265.74791016 -55.65861328 264.74630859 -55.89501953 263.71435547 C-57.57470703 256.26574126 -57.57470703 256.26574126 -57.57470703 252.87451172 C-58.50669922 253.57576172 -59.43869141 254.27701172 -60.39892578 254.99951172 C-87.79585862 275.45941227 -117.79391016 289.80504871 -152.57470703 290.87451172 C-153.76580078 290.91447266 -154.95689453 290.95443359 -156.18408203 290.99560547 C-186.18964177 291.49965143 -215.53731971 285.06940936 -238.57470703 264.87451172 C-239.31849609 264.24158203 -240.06228516 263.60865234 -240.82861328 262.95654297 C-257.15838427 247.96894494 -264.72969088 225.03205388 -265.73486328 203.43310547 C-266.29597544 178.86615123 -259.97438728 156.63083893 -243.57470703 137.87451172 C-243.04361328 137.25962891 -242.51251953 136.64474609 -241.96533203 136.01123047 C-229.39187388 122.47297726 -210.97255062 114.07915608 -193.82470703 108.18701172 C-192.84679199 107.84283203 -191.86887695 107.49865234 -190.86132812 107.14404297 C-167.73896948 99.56458907 -143.04589903 96.48642851 -119.03753662 92.94348145 C-116.14574557 92.51452683 -113.25529527 92.07689094 -110.36480904 91.63924408 C-95.79970912 89.43589503 -81.24136266 87.29069075 -66.57470703 85.87451172 C-66.80051229 64.61366181 -66.80051229 64.61366181 -77.24267578 46.74560547 C-86.80980076 39.06947002 -98.92540351 37.48534238 -110.82470703 37.56201172 C-112.19332886 37.56938354 -112.19332886 37.56938354 -113.58959961 37.5769043 C-124.88246704 37.77097402 -138.81703056 39.06868079 -147.21923828 47.53076172 C-148.57470703 48.87451172 -148.57470703 48.87451172 -150.57470703 48.87451172 C-151.24256604 50.20724822 -151.90896517 51.54071639 -152.57470703 52.87451172 C-152.90470703 53.52548828 -153.23470703 54.17646484 -153.57470703 54.84716797 C-156.07048757 60.06295932 -157.33071386 64.97100627 -158.18017578 70.68701172 C-158.57470703 72.87451172 -158.57470703 72.87451172 -159.57470703 73.87451172 C-162.46613854 73.96975077 -165.33362768 74.00004199 -168.2253418 73.98803711 C-169.58618393 73.98825615 -169.58618393 73.98825615 -170.97451782 73.98847961 C-173.98840688 73.98778013 -177.00223496 73.97998606 -180.01611328 73.97216797 C-182.09976671 73.97030392 -184.18342057 73.96887995 -186.26707458 73.96788025 C-191.7629415 73.96405406 -197.25878216 73.95422292 -202.75463867 73.94317627 C-208.3580693 73.93296432 -213.96150416 73.92838309 -219.56494141 73.92333984 C-230.56820817 73.91260074 -241.57145542 73.89552311 -252.57470703 73.87451172 C-252.26480477 71.30966182 -251.95206569 68.74521103 -251.63769531 66.1809082 C-251.55074905 65.45885948 -251.4638028 64.73681076 -251.3742218 63.99288177 C-250.74248729 58.86504426 -249.89188496 53.90586514 -248.44970703 48.93701172 C-248.23870361 48.1995874 -248.0277002 47.46216309 -247.81030273 46.70239258 C-243.95565463 33.92104796 -238.09573405 22.18430395 -229.57470703 11.87451172 C-228.89923828 11.03662109 -228.22376953 10.19873047 -227.52783203 9.33544922 C-203.40125168 -19.10573856 -164.71563226 -27.4028001 -129.25439453 -30.52783203 C-85.58047133 -33.86726447 -33.75336929 -31.45852266 0 0 Z M-82.40283203 146.66748047 C-83.54645203 146.85538651 -84.69007202 147.04329254 -85.86834717 147.2368927 C-88.28950383 147.63670984 -90.71017068 148.039503 -93.13037109 148.44506836 C-96.76899633 149.05270819 -100.40990842 149.64484783 -104.05126953 150.23583984 C-114.57268407 151.97016465 -125.0351924 153.77635572 -135.35986328 156.46826172 C-136.46874908 156.75632942 -136.46874908 156.75632942 -137.60003662 157.05021667 C-148.86380534 160.15270687 -159.82312714 165.87398832 -165.94580078 176.18310547 C-170.02973805 185.01514974 -169.7057585 194.53978846 -166.53564453 203.62841797 C-162.74798642 212.48168389 -156.14253012 216.58187868 -147.38720703 220.18701172 C-126.30206006 225.34115876 -106.19058933 218.06526439 -87.84423828 207.86279297 C-82.48892924 204.60609966 -77.29324456 201.0719172 -72.34552002 197.21980286 C-70.57470703 195.87451172 -70.57470703 195.87451172 -68.74629211 194.68186951 C-65.89068931 192.63723975 -63.89761063 191.07226347 -62.96185303 187.60124207 C-62.76528578 184.85664135 -62.78690955 182.19449569 -62.89111328 179.44482422 C-62.90101791 178.45449188 -62.91092255 177.46415955 -62.92112732 176.44381714 C-62.96017805 173.29418106 -63.04798299 170.14808633 -63.13720703 166.99951172 C-63.17233291 164.85893721 -63.20426968 162.71830783 -63.23291016 160.57763672 C-63.3099077 155.34206233 -63.42689938 150.10854001 -63.57470703 144.87451172 C-70.00110784 144.6136594 -76.07425937 145.6111428 -82.40283203 146.66748047 Z " fill="#8CCD0E" transform="translate(777.57470703125,100.12548828125)"/>
<path d="M0 0 C14.89858492 -0.42195366 29.79670495 -0.73859436 44.70000744 -0.93261909 C51.62162578 -1.02514166 58.53951676 -1.15105125 65.45874023 -1.35791016 C72.14416979 -1.55768284 78.82494351 -1.66127005 85.51348305 -1.70779037 C88.05720071 -1.74090923 90.60071979 -1.80559584 93.14278221 -1.90314102 C112.54212981 -2.61754931 112.54212981 -2.61754931 118.33348274 1.76640701 C122.35988183 5.99765613 125.23865693 10.7315275 127.89416504 15.90769958 C129.31369789 18.59353362 131.0483166 20.95678768 132.91015625 23.3515625 C133.43802734 24.06828125 133.96589844 24.785 134.50976562 25.5234375 C135.02216797 26.21695313 135.53457031 26.91046875 136.0625 27.625 C136.64064453 28.40875 137.21878906 29.1925 137.81445312 30 C141.52042198 35.0170619 145.25157383 40.0146057 149 45 C153.33967488 50.7717531 157.65114014 56.56352641 161.9375 62.375 C162.51661133 63.15987793 163.09572266 63.94475586 163.69238281 64.75341797 C166.72465405 68.87369982 169.731667 73.01028515 172.70703125 77.171875 C173.30201416 78.00283691 173.89699707 78.83379883 174.51000977 79.68994141 C175.64848993 81.28320661 176.78324922 82.87913881 177.91381836 84.47802734 C178.67577515 85.544646 178.67577515 85.544646 179.453125 86.6328125 C179.89817383 87.26074707 180.34322266 87.88868164 180.80175781 88.53564453 C181.95394878 90.14739364 181.95394878 90.14739364 184 91 C184.27440918 90.41855225 184.54881836 89.83710449 184.83154297 89.23803711 C185.97291512 87.05187779 187.2305454 85.17254979 188.6953125 83.19140625 C189.23808838 82.455271 189.78086426 81.71913574 190.34008789 80.96069336 C190.92910889 80.16928955 191.51812988 79.37788574 192.125 78.5625 C193.05010376 77.31255249 193.05010376 77.31255249 193.99389648 76.03735352 C199.2959445 68.89550747 204.69718859 61.83089997 210.10595703 54.76977539 C214.86810701 48.53461185 219.48842839 42.21212416 224.05126953 35.83032227 C230.20116793 27.26405246 236.62923886 18.90941526 243.05639648 10.55029297 C244.96138423 8.16053813 244.96138423 8.16053813 246.14272594 6.03287697 C249.64695549 0.44622347 249.64695549 0.44622347 253.20735455 -0.72796822 C255.91103708 -0.98497015 258.51319544 -0.99031916 261.22802734 -0.90820312 C262.24327484 -0.90937134 263.25852234 -0.91053955 264.30453491 -0.91174316 C267.64974286 -0.9061834 270.99135506 -0.84402731 274.3359375 -0.78125 C276.65904798 -0.76632407 278.98218368 -0.75493872 281.30532837 -0.74694824 C287.41174175 -0.71644275 293.51662614 -0.63789026 299.62243652 -0.54931641 C305.85615352 -0.46739254 312.09011827 -0.43092259 318.32421875 -0.390625 C330.55014995 -0.30489708 342.7749477 -0.16840677 355 0 C353.17724461 3.07059102 351.34280205 5.98398527 349.13671875 8.79296875 C348.58693359 9.49615234 348.03714844 10.19933594 347.47070312 10.92382812 C346.88224609 11.67083984 346.29378906 12.41785156 345.6875 13.1875 C344.4204991 14.8059318 343.15357412 16.42442303 341.88671875 18.04296875 C341.24009277 18.86716309 340.5934668 19.69135742 339.92724609 20.54052734 C336.94063703 24.3519157 333.97069894 28.17620743 331 32 C329.83342361 33.50007021 328.66675668 35.00007001 327.5 36.5 C326.9225 37.2425 326.345 37.985 325.75 38.75 C324 41 322.25 43.25 320.5 45.5 C319.9222583 46.24282227 319.3445166 46.98564453 318.74926758 47.75097656 C317.58508741 49.24775643 316.4208623 50.74450134 315.2565918 52.24121094 C312.30150827 56.04019058 309.34725986 59.83981465 306.39453125 63.640625 C300.67402561 71.00266704 294.94297851 78.35572926 289.17626953 85.68164062 C283.68737948 92.65988806 278.24508327 99.6743916 272.79833984 106.68554688 C269.29165484 111.19863048 265.781909 115.70933394 262.27270508 120.22045898 C259.23023604 124.13183764 256.1886626 128.0439081 253.1484375 131.95703125 C252.51679687 132.76978516 251.88515625 133.58253906 251.234375 134.41992188 C250.0283582 135.97178172 248.82261252 137.52385232 247.6171875 139.07617188 C247.070625 139.77935547 246.5240625 140.48253906 245.9609375 141.20703125 C245.19861816 142.19630615 245.19861816 142.19630615 244.42089844 143.20556641 C243.18231243 144.76976008 241.86642677 146.27212107 240.5390625 147.76171875 C238.76031322 149.81729256 238.76031322 149.81729256 239.24194336 151.92529297 C240.06978877 154.19100321 241.04213062 155.5902294 242.58984375 157.43359375 C243.12174316 158.07570801 243.65364258 158.71782227 244.20166016 159.37939453 C244.7744873 160.05856934 245.34731445 160.73774414 245.9375 161.4375 C247.13286705 162.88038759 248.32686295 164.32441213 249.51953125 165.76953125 C250.1120166 166.4857666 250.70450195 167.20200195 251.31494141 167.93994141 C254.4868504 171.81774032 257.50356791 175.81081352 260.54296875 179.79296875 C263.1440258 183.19854123 265.78691993 186.57039565 268.4375 189.9375 C268.89527832 190.51902832 269.35305664 191.10055664 269.82470703 191.69970703 C270.75259621 192.8779014 271.68065654 194.05596099 272.60888672 195.23388672 C274.90874232 198.15371042 277.20419526 201.07699088 279.5 204 C282.21336594 207.45429037 284.92725356 210.90816051 287.64453125 214.359375 C293.38952887 221.65890138 299.10203617 228.983049 304.80126953 236.31835938 C309.73658931 242.66783028 314.69850748 248.99591836 319.67333984 255.31445312 C321.95086206 258.20808827 324.22524007 261.10419323 326.5 264 C327.4166523 265.16667796 328.33331895 266.33334464 329.25 267.5 C334.75000001 274.50000001 334.75000001 274.50000001 336.12670898 276.25219727 C337.03765025 277.41156233 337.94862001 278.57090501 338.85961914 279.73022461 C341.23912615 282.75841685 343.61804469 285.7870689 345.99609375 288.81640625 C346.73472656 289.75709961 346.73472656 289.75709961 347.48828125 290.71679688 C348.42466414 291.90935999 349.36087423 293.10205882 350.296875 294.29492188 C352.27574521 296.8148427 354.26400529 299.31653922 356.31640625 301.77734375 C358 304 358 304 358 306 C342.63209551 306.49277283 327.26478812 306.86192493 311.89082336 307.08805561 C304.75003492 307.19590209 297.61418004 307.3425842 290.4765625 307.58422852 C284.24746364 307.79501249 278.02193642 307.92934291 271.78937054 307.97585839 C268.49291449 308.00303018 265.20892582 308.07703936 261.91519165 308.22033119 C241.99496364 309.05185454 241.99496364 309.05185454 235.37103271 303.99166489 C230.60732217 299.09363153 227.02556195 293.59503391 223.61607361 287.70134544 C221.04778742 283.40833047 218.02006258 279.48096959 215 275.5 C213.85308605 273.94055166 212.7082791 272.37954959 211.56640625 270.81640625 C207.75350436 265.64137363 203.84759397 260.53926385 199.9375 255.4375 C193.76924306 247.38544817 187.76533919 239.23199767 181.8671875 230.98046875 C178.97427686 226.93940292 175.99796329 222.96353249 173 219 C169.54737604 220.15087465 169.00905487 220.97204092 166.91796875 223.83984375 C166.02537354 225.04966919 166.02537354 225.04966919 165.11474609 226.28393555 C164.16075928 227.59744995 164.16075928 227.59744995 163.1875 228.9375 C161.83081692 230.77706749 160.47271374 232.61558838 159.11328125 234.453125 C158.42572754 235.38447266 157.73817383 236.31582031 157.02978516 237.27539062 C154.03708424 241.29253546 150.96340351 245.24372555 147.875 249.1875 C141.7365889 257.04211858 135.66693596 264.94677738 129.62207031 272.87353516 C122.84431968 281.75887652 116.05498483 290.63549738 109.25 299.5 C108.45078125 300.5415625 107.6515625 301.583125 106.828125 302.65625 C105 305 105 305 104 306 C102.62123975 306.0953919 101.23763084 306.12188622 99.85557556 306.12025452 C98.96230057 306.12162918 98.06902557 306.12300385 97.14868164 306.12442017 C96.16109863 306.12082489 95.17351562 306.11722961 94.15600586 306.11352539 C92.6049691 306.11374443 92.6049691 306.11374443 91.02259827 306.1139679 C87.58665914 306.11326827 84.15077347 306.10547358 80.71484375 306.09765625 C78.33972707 306.09579225 75.96461 306.09436826 73.5894928 306.09336853 C67.32423856 306.08954197 61.05900733 306.0797105 54.79376221 306.06866455 C48.4061311 306.0584534 42.01849629 306.05387155 35.63085938 306.04882812 C23.08722974 306.03808836 10.54361609 306.02120127 -2 306 C-1.06130522 304.57600328 -0.12045049 303.15343025 0.82128906 301.73144531 C1.34499084 300.93909485 1.86869263 300.14674438 2.40826416 299.3303833 C4.68721033 295.99388866 7.19031631 292.87300188 9.75 289.75 C10.80566229 288.44610111 11.86033368 287.1413994 12.9140625 285.8359375 C13.69378418 284.87059082 13.69378418 284.87059082 14.48925781 283.88574219 C16.73896568 281.07760651 18.93754648 278.23176201 21.125 275.375 C21.52944336 274.84680664 21.93388672 274.31861328 22.35058594 273.77441406 C23.16151922 272.71416262 23.97206832 271.65361722 24.78222656 270.59277344 C26.84844677 267.89028334 28.92475329 265.19556063 31 262.5 C33.45481326 259.30988498 35.90864431 256.11903465 38.359375 252.92578125 C43.1537507 246.68212532 47.97406812 240.45958574 52.8125 234.25 C57.94690385 227.65964379 63.03905063 221.03877735 68.10473633 214.39550781 C72.62227526 208.47781198 77.19181427 202.60166868 81.76953125 196.73046875 C86.24206753 190.98856519 90.67400016 185.21688013 95.07910156 179.4230957 C97.98196746 175.61208307 100.91582051 171.82943221 103.890625 168.07421875 C104.53451172 167.25824219 105.17839844 166.44226563 105.84179688 165.6015625 C107.08755866 164.02555271 108.33863769 162.4537273 109.59570312 160.88671875 C110.15708984 160.17515625 110.71847656 159.46359375 111.296875 158.73046875 C111.79541992 158.10551514 112.29396484 157.48056152 112.80761719 156.83666992 C114.129268 154.80088388 114.78586818 153.42356938 115 151 C114.08023915 149.08786772 114.08023915 149.08786772 112.52734375 147.3046875 C111.68320923 146.24495728 111.68320923 146.24495728 110.82202148 145.16381836 C110.20012939 144.4085083 109.5782373 143.65319824 108.9375 142.875 C107.63510546 141.24894713 106.3330309 139.62263793 105.03125 137.99609375 C104.35964844 137.16577637 103.68804688 136.33545898 102.99609375 135.47998047 C99.92895895 131.66932058 96.93366111 127.80403301 93.9375 123.9375 C93.35863037 123.1935498 92.77976074 122.44959961 92.18334961 121.68310547 C87.72035248 115.94541109 83.30199431 110.17450219 78.89428711 104.39428711 C74.9592389 99.23947521 70.98755169 94.11427711 67 89 C61.92683824 82.49336207 56.89732839 75.95537713 51.89453125 69.39453125 C47.95932493 64.23969682 43.98762194 59.11436722 40 54 C34.93197524 47.49995058 29.90704628 40.96896919 24.90991211 34.41430664 C20.26137463 28.32421935 15.56150928 22.27486869 10.84375 16.23828125 C9.22397426 14.16282392 7.61087317 12.08237225 6 10 C5.42491699 9.26281738 4.84983398 8.52563477 4.25732422 7.76611328 C3.43192139 6.69272705 3.43192139 6.69272705 2.58984375 5.59765625 C2.09218506 4.95449463 1.59452637 4.31133301 1.08178711 3.64868164 C0 2 0 2 0 0 Z " fill="#8CCD0E" transform="translate(829,77)"/>
<path d="M0 0 C34.65 0 69.3 0 105 0 C105 35.64 105 71.28 105 108 C70.35 108 35.7 108 0 108 C0 72.36 0 36.72 0 0 Z " fill="#34324B" transform="translate(13,275)"/>
</svg>
